<svg xmlns="http://www.w3.org/2000/svg" xmlns:xlink="http://www.w3.org/1999/xlink" contentStyleType="text/css" data-diagram-type="DESCRIPTION" height="816px" preserveAspectRatio="none" style="width:2184px;height:816px;background:#FEFEFE;" version="1.1" viewBox="0 0 2184 816" width="2184px" zoomAndPan="magnify"><?plantuml 1.2026.3beta6?><defs/><g><rect fill="#FEFEFE" height="816" style="stroke:none;stroke-width:1;" width="2184" x="0" y="0"/><!--cluster src_layer--><g class="cluster" data-qualified-name="src_layer" data-source-line="14" id="ent0002"><rect fill="#E3F2FD" height="468" rx="2.5" ry="2.5" style="stroke:#181818;stroke-width:1;" width="152.82" x="20.85" y="334.91"/><text fill="#000000" font-family="sans-serif" font-size="12" font-weight="700" lengthAdjust="spacing" textLength="48.0004" x="73.2598" y="348.0487">&#25968;&#25454;&#28304;&#23618;</text></g><!--cluster route_layer--><g class="cluster" data-qualified-name="route_layer" data-source-line="22" id="ent0008"><rect fill="#FFF3E0" height="195" rx="2.5" ry="2.5" style="stroke:#181818;stroke-width:1;" width="396.85" x="7" y="115.91"/><text fill="#000000" font-family="sans-serif" font-size="12" font-weight="700" lengthAdjust="spacing" textLength="72.0005" x="169.4247" y="129.0487">&#20379;&#24212;&#21830;&#36335;&#30001;&#23618;</text></g><!--cluster tool_layer--><g class="cluster" data-qualified-name="tool_layer" data-source-line="28" id="ent0012"><rect fill="#E8F5E9" height="377" rx="2.5" ry="2.5" style="stroke:#181818;stroke-width:1;" width="211.15" x="451.78" y="69.91"/><text fill="#000000" font-family="sans-serif" font-size="12" font-weight="700" lengthAdjust="spacing" textLength="60.0005" x="527.3548" y="83.0487">&#25968;&#25454;&#24037;&#20855;&#23618;</text></g><!--cluster analyst_layer--><g class="cluster" data-qualified-name="analyst_layer" data-source-line="35" id="ent0017"><rect fill="#F3E5F5" height="391" rx="2.5" ry="2.5" style="stroke:#181818;stroke-width:1;" width="154.55" x="695.93" y="55.91"/><text fill="#000000" font-family="sans-serif" font-size="12" font-weight="700" lengthAdjust="spacing" textLength="60.0005" x="743.2048" y="69.0487">&#20998;&#26512;&#24072;&#22242;&#38431;</text><text fill="#000000" font-family="sans-serif" font-size="12" font-weight="700" lengthAdjust="spacing" textLength="114.9551" x="715.7275" y="83.0174">(quick_think_llm)</text></g><!--cluster decision_layer--><g class="cluster" data-qualified-name="decision_layer" data-source-line="42" id="ent0022"><rect fill="#FFEBEE" height="116" rx="2.5" ry="2.5" style="stroke:#181818;stroke-width:1;" width="1020.84" x="883.48" y="219.91"/><text fill="#000000" font-family="sans-serif" font-size="12" font-weight="700" lengthAdjust="spacing" textLength="60.0005" x="1363.8998" y="233.0487">&#30740;&#31350;&#20915;&#31574;&#23618;</text></g><!--cluster output_layer--><g class="cluster" data-qualified-name="output_layer" data-source-line="50" id="ent0028"><rect fill="#E0F7FA" height="286" rx="2.5" ry="2.5" style="stroke:#181818;stroke-width:1;" width="184.22" x="1986.32" y="81.91"/><text fill="#000000" font-family="sans-serif" font-size="12" font-weight="700" lengthAdjust="spacing" textLength="72.0005" x="2042.4297" y="95.0487">&#36755;&#20986;&#19982;&#25345;&#20037;&#21270;</text></g><!--entity yf--><g class="entity" data-qualified-name="src_layer.yf" data-source-line="15" id="ent0003"><rect fill="#BBDEFB" height="55.6094" rx="7.5" ry="7.5" style="stroke:#DEE2E6;stroke-width:0.5;" width="109.7056" x="42.41" y="367.11"/><rect fill="#BBDEFB" height="10" style="stroke:#DEE2E6;stroke-width:0.5;" width="15" x="132.1156" y="372.11"/><rect fill="#BBDEFB" height="2" style="stroke:#DEE2E6;stroke-width:0.5;" width="4" x="130.1156" y="374.11"/><rect fill="#BBDEFB" height="2" style="stroke:#DEE2E6;stroke-width:0.5;" width="4" x="130.1156" y="378.11"/><text fill="#000000" font-family="sans-serif" font-size="11" lengthAdjust="spacing" textLength="46.938" x="57.41" y="397.3204">yfinance</text><text fill="#000000" font-family="sans-serif" font-size="11" lengthAdjust="spacing" textLength="69.7056" x="57.41" y="410.1251">&#32654;&#32929;/&#20840;&#29699;&#25968;&#25454;</text></g><!--entity av--><g class="entity" data-qualified-name="src_layer.av" data-source-line="16" id="ent0004"><rect fill="#BBDEFB" height="55.6094" rx="7.5" ry="7.5" style="stroke:#DEE2E6;stroke-width:0.5;" width="120.8135" x="36.85" y="458.11"/><rect fill="#BBDEFB" height="10" style="stroke:#DEE2E6;stroke-width:0.5;" width="15" x="137.6635" y="463.11"/><rect fill="#BBDEFB" height="2" style="stroke:#DEE2E6;stroke-width:0.5;" width="4" x="135.6635" y="465.11"/><rect fill="#BBDEFB" height="2" style="stroke:#DEE2E6;stroke-width:0.5;" width="4" x="135.6635" y="469.11"/><text fill="#000000" font-family="sans-serif" font-size="11" lengthAdjust="spacing" textLength="80.8135" x="51.85" y="488.3204">Alpha Vantage</text><text fill="#000000" font-family="sans-serif" font-size="11" lengthAdjust="spacing" textLength="54.9996" x="51.85" y="501.1251">&#22810;&#24066;&#22330;&#25968;&#25454;</text></g><!--entity ts--><g class="entity" data-qualified-name="src_layer.ts" data-source-line="17" id="ent0005"><rect fill="#BBDEFB" height="55.6094" rx="7.5" ry="7.5" style="stroke:#DEE2E6;stroke-width:0.5;" width="87.7057" x="53.41" y="549.11"/><rect fill="#BBDEFB" height="10" style="stroke:#DEE2E6;stroke-width:0.5;" width="15" x="121.1157" y="554.11"/><rect fill="#BBDEFB" height="2" style="stroke:#DEE2E6;stroke-width:0.5;" width="4" x="119.1157" y="556.11"/><rect fill="#BBDEFB" height="2" style="stroke:#DEE2E6;stroke-width:0.5;" width="4" x="119.1157" y="560.11"/><text fill="#000000" font-family="sans-serif" font-size="11" lengthAdjust="spacing" textLength="47.7057" x="68.41" y="579.3204">&#33150;&#35759;/&#26032;&#28010;</text><text fill="#000000" font-family="sans-serif" font-size="11" lengthAdjust="spacing" textLength="44.0213" x="68.41" y="592.1251">A &#32929;&#34892;&#24773;</text></g><!--entity ak--><g class="entity" data-qualified-name="src_layer.ak" data-source-line="18" id="ent0006"><rect fill="#BBDEFB" height="55.6094" rx="7.5" ry="7.5" style="stroke:#DEE2E6;stroke-width:0.5;" width="95.0212" x="49.75" y="640.11"/><rect fill="#BBDEFB" height="10" style="stroke:#DEE2E6;stroke-width:0.5;" width="15" x="124.7712" y="645.11"/><rect fill="#BBDEFB" height="2" style="stroke:#DEE2E6;stroke-width:0.5;" width="4" x="122.7712" y="647.11"/><rect fill="#BBDEFB" height="2" style="stroke:#DEE2E6;stroke-width:0.5;" width="4" x="122.7712" y="651.11"/><text fill="#000000" font-family="sans-serif" font-size="11" lengthAdjust="spacing" textLength="46.7231" x="64.75" y="670.3204">AKShare</text><text fill="#000000" font-family="sans-serif" font-size="11" lengthAdjust="spacing" textLength="55.0212" x="64.75" y="683.1251">A &#32929;&#22522;&#26412;&#38754;</text></g><!--entity oc--><g class="entity" data-qualified-name="src_layer.oc" data-source-line="19" id="ent0007"><rect fill="#BBDEFB" height="55.6094" rx="7.5" ry="7.5" style="stroke:#DEE2E6;stroke-width:0.5;" width="112.4933" x="41.01" y="731.11"/><rect fill="#BBDEFB" height="10" style="stroke:#DEE2E6;stroke-width:0.5;" width="15" x="133.5033" y="736.11"/><rect fill="#BBDEFB" height="2" style="stroke:#DEE2E6;stroke-width:0.5;" width="4" x="131.5033" y="738.11"/><rect fill="#BBDEFB" height="2" style="stroke:#DEE2E6;stroke-width:0.5;" width="4" x="131.5033" y="742.11"/><text fill="#000000" font-family="sans-serif" font-size="11" lengthAdjust="spacing" textLength="46.4331" x="56.01" y="761.3204">OpenCLI</text><text fill="#000000" font-family="sans-serif" font-size="11" lengthAdjust="spacing" textLength="72.4933" x="56.01" y="774.1251">11 &#20010;&#25968;&#25454;&#24037;&#20855;</text></g><!--entity cfg--><g class="entity" data-qualified-name="route_layer.cfg" data-source-line="23" id="ent0009"><rect fill="#FFE0B2" height="55.6094" rx="7.5" ry="7.5" style="stroke:#DEE2E6;stroke-width:0.5;" width="104.5552" x="44.98" y="239.11"/><rect fill="#FFE0B2" height="10" style="stroke:#DEE2E6;stroke-width:0.5;" width="15" x="129.5352" y="244.11"/><rect fill="#FFE0B2" height="2" style="stroke:#DEE2E6;stroke-width:0.5;" width="4" x="127.5352" y="246.11"/><rect fill="#FFE0B2" height="2" style="stroke:#DEE2E6;stroke-width:0.5;" width="4" x="127.5352" y="250.11"/><text fill="#000000" font-family="sans-serif" font-size="11" lengthAdjust="spacing" textLength="50.6494" x="59.98" y="269.3204">config.py</text><text fill="#000000" font-family="sans-serif" font-size="11" lengthAdjust="spacing" textLength="64.5552" x="59.98" y="282.1251">set_config()</text></g><!--entity router--><g class="entity" data-qualified-name="route_layer.router" data-source-line="24" id="ent0010"><rect fill="#FFCC80" height="55.6094" rx="7.5" ry="7.5" style="stroke:#DEE2E6;stroke-width:0.5;" width="138.4146" x="249.44" y="239.11"/><rect fill="#FFCC80" height="10" style="stroke:#DEE2E6;stroke-width:0.5;" width="15" x="367.8546" y="244.11"/><rect fill="#FFCC80" height="2" style="stroke:#DEE2E6;stroke-width:0.5;" width="4" x="365.8546" y="246.11"/><rect fill="#FFCC80" height="2" style="stroke:#DEE2E6;stroke-width:0.5;" width="4" x="365.8546" y="250.11"/><text fill="#000000" font-family="sans-serif" font-size="11" lengthAdjust="spacing" textLength="66.0483" x="264.44" y="269.3204">interface.py</text><text fill="#000000" font-family="sans-serif" font-size="11" lengthAdjust="spacing" textLength="98.4146" x="264.44" y="282.1251">route_to_vendor()</text></g><!--entity methods--><g class="entity" data-qualified-name="route_layer.methods" data-source-line="25" id="ent0011"><rect fill="#FFE0B2" height="55.6094" rx="7.5" ry="7.5" style="stroke:#DEE2E6;stroke-width:0.5;" width="148.5176" x="23" y="148.11"/><rect fill="#FFE0B2" height="10" style="stroke:#DEE2E6;stroke-width:0.5;" width="15" x="151.5176" y="153.11"/><rect fill="#FFE0B2" height="2" style="stroke:#DEE2E6;stroke-width:0.5;" width="4" x="149.5176" y="155.11"/><rect fill="#FFE0B2" height="2" style="stroke:#DEE2E6;stroke-width:0.5;" width="4" x="149.5176" y="159.11"/><text fill="#000000" font-family="sans-serif" font-size="11" lengthAdjust="spacing" textLength="108.5176" x="38" y="178.3204">VENDOR_METHODS</text><text fill="#000000" font-family="sans-serif" font-size="11" lengthAdjust="spacing" textLength="96.4913" x="38" y="191.1251">10 &#26041;&#27861; x 4 &#20379;&#24212;&#21830;</text></g><!--entity tools_core--><g class="entity" data-qualified-name="tool_layer.tools_core" data-source-line="29" id="ent0013"><rect fill="#C8E6C9" height="55.6094" rx="7.5" ry="7.5" style="stroke:#DEE2E6;stroke-width:0.5;" width="123.0317" x="495.84" y="102.11"/><rect fill="#C8E6C9" height="10" style="stroke:#DEE2E6;stroke-width:0.5;" width="15" x="598.8717" y="107.11"/><rect fill="#C8E6C9" height="2" style="stroke:#DEE2E6;stroke-width:0.5;" width="4" x="596.8717" y="109.11"/><rect fill="#C8E6C9" height="2" style="stroke:#DEE2E6;stroke-width:0.5;" width="4" x="596.8717" y="113.11"/><text fill="#000000" font-family="sans-serif" font-size="11" lengthAdjust="spacing" textLength="83.0317" x="510.84" y="132.3204">get_stock_data</text><text fill="#000000" font-family="sans-serif" font-size="11" lengthAdjust="spacing" textLength="77.7144" x="510.84" y="145.1251">get_indicators</text></g><!--entity tools_fund--><g class="entity" data-qualified-name="tool_layer.tools_fund" data-source-line="30" id="ent0014"><rect fill="#C8E6C9" height="55.6094" rx="7.5" ry="7.5" style="stroke:#DEE2E6;stroke-width:0.5;" width="179.1543" x="467.78" y="193.11"/><rect fill="#C8E6C9" height="10" style="stroke:#DEE2E6;stroke-width:0.5;" width="15" x="626.9343" y="198.11"/><rect fill="#C8E6C9" height="2" style="stroke:#DEE2E6;stroke-width:0.5;" width="4" x="624.9343" y="200.11"/><rect fill="#C8E6C9" height="2" style="stroke:#DEE2E6;stroke-width:0.5;" width="4" x="624.9343" y="204.11"/><text fill="#000000" font-family="sans-serif" font-size="11" lengthAdjust="spacing" textLength="99.3975" x="482.78" y="223.3204">get_fundamentals</text><text fill="#000000" font-family="sans-serif" font-size="11" lengthAdjust="spacing" textLength="139.1543" x="482.78" y="236.1251">balance/cashflow/income</text></g><!--entity tools_news--><g class="entity" data-qualified-name="tool_layer.tools_news" data-source-line="31" id="ent0015"><rect fill="#C8E6C9" height="55.6094" rx="7.5" ry="7.5" style="stroke:#DEE2E6;stroke-width:0.5;" width="131.0776" x="491.82" y="284.11"/><rect fill="#C8E6C9" height="10" style="stroke:#DEE2E6;stroke-width:0.5;" width="15" x="602.8976" y="289.11"/><rect fill="#C8E6C9" height="2" style="stroke:#DEE2E6;stroke-width:0.5;" width="4" x="600.8976" y="291.11"/><rect fill="#C8E6C9" height="2" style="stroke:#DEE2E6;stroke-width:0.5;" width="4" x="600.8976" y="295.11"/><text fill="#000000" font-family="sans-serif" font-size="11" lengthAdjust="spacing" textLength="52.0298" x="506.82" y="314.3204">get_news</text><text fill="#000000" font-family="sans-serif" font-size="11" lengthAdjust="spacing" textLength="91.0776" x="506.82" y="327.1251">get_global_news</text></g><!--entity tools_sent--><g class="entity" data-qualified-name="tool_layer.tools_sent" data-source-line="32" id="ent0016"><rect fill="#C8E6C9" height="55.6094" rx="7.5" ry="7.5" style="stroke:#DEE2E6;stroke-width:0.5;" width="174.0195" x="470.34" y="375.11"/><rect fill="#C8E6C9" height="10" style="stroke:#DEE2E6;stroke-width:0.5;" width="15" x="624.3595" y="380.11"/><rect fill="#C8E6C9" height="2" style="stroke:#DEE2E6;stroke-width:0.5;" width="4" x="622.3595" y="382.11"/><rect fill="#C8E6C9" height="2" style="stroke:#DEE2E6;stroke-width:0.5;" width="4" x="622.3595" y="386.11"/><text fill="#000000" font-family="sans-serif" font-size="11" lengthAdjust="spacing" textLength="79.1699" x="485.34" y="405.3204">get_sentiment</text><text fill="#000000" font-family="sans-serif" font-size="11" lengthAdjust="spacing" textLength="134.0195" x="485.34" y="418.1251">get_insider_transactions</text></g><!--entity market--><g class="entity" data-qualified-name="analyst_layer.market" data-source-line="36" id="ent0018"><rect fill="#E1BEE7" height="55.6094" rx="7.5" ry="7.5" style="stroke:#DEE2E6;stroke-width:0.5;" width="122.5483" x="711.93" y="102.11"/><rect fill="#E1BEE7" height="10" style="stroke:#DEE2E6;stroke-width:0.5;" width="15" x="814.4783" y="107.11"/><rect fill="#E1BEE7" height="2" style="stroke:#DEE2E6;stroke-width:0.5;" width="4" x="812.4783" y="109.11"/><rect fill="#E1BEE7" height="2" style="stroke:#DEE2E6;stroke-width:0.5;" width="4" x="812.4783" y="113.11"/><text fill="#000000" font-family="sans-serif" font-size="11" lengthAdjust="spacing" textLength="54.9996" x="726.93" y="132.3204">&#24066;&#22330;&#20998;&#26512;&#24072;</text><text fill="#000000" font-family="sans-serif" font-size="11" lengthAdjust="spacing" textLength="82.5483" x="726.93" y="145.1251">Market Analyst</text></g><!--entity social--><g class="entity" data-qualified-name="analyst_layer.social" data-source-line="37" id="ent0019"><rect fill="#E1BEE7" height="55.6094" rx="7.5" ry="7.5" style="stroke:#DEE2E6;stroke-width:0.5;" width="116.957" x="714.73" y="375.11"/><rect fill="#E1BEE7" height="10" style="stroke:#DEE2E6;stroke-width:0.5;" width="15" x="811.687" y="380.11"/><rect fill="#E1BEE7" height="2" style="stroke:#DEE2E6;stroke-width:0.5;" width="4" x="809.687" y="382.11"/><rect fill="#E1BEE7" height="2" style="stroke:#DEE2E6;stroke-width:0.5;" width="4" x="809.687" y="386.11"/><text fill="#000000" font-family="sans-serif" font-size="11" lengthAdjust="spacing" textLength="54.9996" x="729.73" y="405.3204">&#24773;&#32490;&#20998;&#26512;&#24072;</text><text fill="#000000" font-family="sans-serif" font-size="11" lengthAdjust="spacing" textLength="76.957" x="729.73" y="418.1251">Social Analyst</text></g><!--entity news_a--><g class="entity" data-qualified-name="analyst_layer.news_a" data-source-line="38" id="ent0020"><rect fill="#E1BEE7" height="55.6094" rx="7.5" ry="7.5" style="stroke:#DEE2E6;stroke-width:0.5;" width="114.0674" x="716.17" y="284.11"/><rect fill="#E1BEE7" height="10" style="stroke:#DEE2E6;stroke-width:0.5;" width="15" x="810.2374" y="289.11"/><rect fill="#E1BEE7" height="2" style="stroke:#DEE2E6;stroke-width:0.5;" width="4" x="808.2374" y="291.11"/><rect fill="#E1BEE7" height="2" style="stroke:#DEE2E6;stroke-width:0.5;" width="4" x="808.2374" y="295.11"/><text fill="#000000" font-family="sans-serif" font-size="11" lengthAdjust="spacing" textLength="54.9996" x="731.17" y="314.3204">&#26032;&#38395;&#20998;&#26512;&#24072;</text><text fill="#000000" font-family="sans-serif" font-size="11" lengthAdjust="spacing" textLength="74.0674" x="731.17" y="327.1251">News Analyst</text></g><!--entity fund--><g class="entity" data-qualified-name="analyst_layer.fund" data-source-line="39" id="ent0021"><rect fill="#E1BEE7" height="55.6094" rx="7.5" ry="7.5" style="stroke:#DEE2E6;stroke-width:0.5;" width="118.2891" x="714.06" y="193.11"/><rect fill="#E1BEE7" height="10" style="stroke:#DEE2E6;stroke-width:0.5;" width="15" x="812.3491" y="198.11"/><rect fill="#E1BEE7" height="2" style="stroke:#DEE2E6;stroke-width:0.5;" width="4" x="810.3491" y="200.11"/><rect fill="#E1BEE7" height="2" style="stroke:#DEE2E6;stroke-width:0.5;" width="4" x="810.3491" y="204.11"/><text fill="#000000" font-family="sans-serif" font-size="11" lengthAdjust="spacing" textLength="65.9995" x="729.06" y="223.3204">&#22522;&#26412;&#38754;&#20998;&#26512;&#24072;</text><text fill="#000000" font-family="sans-serif" font-size="11" lengthAdjust="spacing" textLength="78.2891" x="729.06" y="236.1251">Fundamentals</text></g><!--entity debate--><g class="entity" data-qualified-name="decision_layer.debate" data-source-line="43" id="ent0023"><rect fill="#FFCDD2" height="55.6094" rx="7.5" ry="7.5" style="stroke:#DEE2E6;stroke-width:0.5;" width="109.7056" x="899.48" y="258.11"/><rect fill="#FFCDD2" height="10" style="stroke:#DEE2E6;stroke-width:0.5;" width="15" x="989.1856" y="263.11"/><rect fill="#FFCDD2" height="2" style="stroke:#DEE2E6;stroke-width:0.5;" width="4" x="987.1856" y="265.11"/><rect fill="#FFCDD2" height="2" style="stroke:#DEE2E6;stroke-width:0.5;" width="4" x="987.1856" y="269.11"/><text fill="#000000" font-family="sans-serif" font-size="11" lengthAdjust="spacing" textLength="69.7056" x="914.48" y="288.3204">&#30475;&#22810;/&#30475;&#31354;&#36777;&#35770;</text><text fill="#000000" font-family="sans-serif" font-size="11" lengthAdjust="spacing" textLength="65.4414" x="914.48" y="301.1251">Bull vs Bear</text></g><!--entity rm--><g class="entity" data-qualified-name="decision_layer.rm" data-source-line="44" id="ent0024"><rect fill="#EF9A9A" height="68.4141" rx="7.5" ry="7.5" style="stroke:#DEE2E6;stroke-width:0.5;" width="142.9048" x="1080.51" y="251.7"/><rect fill="#EF9A9A" height="10" style="stroke:#DEE2E6;stroke-width:0.5;" width="15" x="1203.4148" y="256.7"/><rect fill="#EF9A9A" height="2" style="stroke:#DEE2E6;stroke-width:0.5;" width="4" x="1201.4148" y="258.7"/><rect fill="#EF9A9A" height="2" style="stroke:#DEE2E6;stroke-width:0.5;" width="4" x="1201.4148" y="262.7"/><text fill="#000000" font-family="sans-serif" font-size="11" lengthAdjust="spacing" textLength="102.9048" x="1095.51" y="281.9104">Research Manager</text><text fill="#000000" font-family="sans-serif" font-size="11" lengthAdjust="spacing" textLength="54.9996" x="1095.51" y="294.7151">&#32467;&#26500;&#21270;&#36755;&#20986;</text><text fill="#000000" font-family="sans-serif" font-size="11" lengthAdjust="spacing" textLength="83.0103" x="1095.51" y="307.5198">deep_think_llm</text></g><!--entity trader--><g class="entity" data-qualified-name="decision_layer.trader" data-source-line="45" id="ent0025"><rect fill="#FFCDD2" height="68.4141" rx="7.5" ry="7.5" style="stroke:#DEE2E6;stroke-width:0.5;" width="113.3423" x="1294.73" y="251.7"/><rect fill="#FFCDD2" height="10" style="stroke:#DEE2E6;stroke-width:0.5;" width="15" x="1388.0723" y="256.7"/><rect fill="#FFCDD2" height="2" style="stroke:#DEE2E6;stroke-width:0.5;" width="4" x="1386.0723" y="258.7"/><rect fill="#FFCDD2" height="2" style="stroke:#DEE2E6;stroke-width:0.5;" width="4" x="1386.0723" y="262.7"/><text fill="#000000" font-family="sans-serif" font-size="11" lengthAdjust="spacing" textLength="36.2549" x="1309.73" y="281.9104">Trader</text><text fill="#000000" font-family="sans-serif" font-size="11" lengthAdjust="spacing" textLength="73.3423" x="1309.73" y="294.7151">Buy/Hold/Sell</text><text fill="#000000" font-family="sans-serif" font-size="11" lengthAdjust="spacing" textLength="57.1431" x="1309.73" y="307.5198">structured</text></g><!--entity risk--><g class="entity" data-qualified-name="decision_layer.risk" data-source-line="46" id="ent0026"><rect fill="#FFCDD2" height="55.6094" rx="7.5" ry="7.5" style="stroke:#DEE2E6;stroke-width:0.5;" width="220.8877" x="1469.08" y="258.11"/><rect fill="#FFCDD2" height="10" style="stroke:#DEE2E6;stroke-width:0.5;" width="15" x="1669.9677" y="263.11"/><rect fill="#FFCDD2" height="2" style="stroke:#DEE2E6;stroke-width:0.5;" width="4" x="1667.9677" y="265.11"/><rect fill="#FFCDD2" height="2" style="stroke:#DEE2E6;stroke-width:0.5;" width="4" x="1667.9677" y="269.11"/><text fill="#000000" font-family="sans-serif" font-size="11" lengthAdjust="spacing" textLength="43.9997" x="1484.08" y="288.3204">&#39118;&#38505;&#36777;&#35770;</text><text fill="#000000" font-family="sans-serif" font-size="11" lengthAdjust="spacing" textLength="180.8877" x="1484.08" y="301.1251">Aggressive/Conservative/Neutral</text></g><!--entity pm--><g class="entity" data-qualified-name="decision_layer.pm" data-source-line="47" id="ent0027"><rect fill="#EF9A9A" height="68.4141" rx="7.5" ry="7.5" style="stroke:#DEE2E6;stroke-width:0.5;" width="137.3564" x="1750.96" y="251.7"/><rect fill="#EF9A9A" height="10" style="stroke:#DEE2E6;stroke-width:0.5;" width="15" x="1868.3164" y="256.7"/><rect fill="#EF9A9A" height="2" style="stroke:#DEE2E6;stroke-width:0.5;" width="4" x="1866.3164" y="258.7"/><rect fill="#EF9A9A" height="2" style="stroke:#DEE2E6;stroke-width:0.5;" width="4" x="1866.3164" y="262.7"/><text fill="#000000" font-family="sans-serif" font-size="11" lengthAdjust="spacing" textLength="97.3564" x="1765.96" y="281.9104">Portfolio Manager</text><text fill="#000000" font-family="sans-serif" font-size="11" lengthAdjust="spacing" textLength="43.4949" x="1765.96" y="294.7151">5 &#32423;&#35780;&#32423;</text><text fill="#000000" font-family="sans-serif" font-size="11" lengthAdjust="spacing" textLength="83.0103" x="1765.96" y="307.5198">deep_think_llm</text></g><!--entity memlog--><g class="entity" data-qualified-name="output_layer.memlog" data-source-line="51" id="ent0029"><rect fill="#B2EBF2" height="55.6094" rx="7.5" ry="7.5" style="stroke:#DEE2E6;stroke-width:0.5;" width="152.2236" x="2002.32" y="296.11"/><rect fill="#B2EBF2" height="10" style="stroke:#DEE2E6;stroke-width:0.5;" width="15" x="2134.5436" y="301.11"/><rect fill="#B2EBF2" height="2" style="stroke:#DEE2E6;stroke-width:0.5;" width="4" x="2132.5436" y="303.11"/><rect fill="#B2EBF2" height="2" style="stroke:#DEE2E6;stroke-width:0.5;" width="4" x="2132.5436" y="307.11"/><text fill="#000000" font-family="sans-serif" font-size="11" lengthAdjust="spacing" textLength="43.9997" x="2017.32" y="326.3204">&#20915;&#31574;&#26085;&#24535;</text><text fill="#000000" font-family="sans-serif" font-size="11" lengthAdjust="spacing" textLength="112.2236" x="2017.32" y="339.1251">trading_memory.md</text></g><!--entity checkpoint--><g class="entity" data-qualified-name="output_layer.checkpoint" data-source-line="52" id="ent0030"><rect fill="#B2EBF2" height="55.6094" rx="7.5" ry="7.5" style="stroke:#DEE2E6;stroke-width:0.5;" width="112.4021" x="2022.23" y="205.11"/><rect fill="#B2EBF2" height="10" style="stroke:#DEE2E6;stroke-width:0.5;" width="15" x="2114.6321" y="210.11"/><rect fill="#B2EBF2" height="2" style="stroke:#DEE2E6;stroke-width:0.5;" width="4" x="2112.6321" y="212.11"/><rect fill="#B2EBF2" height="2" style="stroke:#DEE2E6;stroke-width:0.5;" width="4" x="2112.6321" y="216.11"/><text fill="#000000" font-family="sans-serif" font-size="11" lengthAdjust="spacing" textLength="72.4021" x="2037.23" y="235.3204">SQLite &#26816;&#26597;&#28857;</text><text fill="#000000" font-family="sans-serif" font-size="11" lengthAdjust="spacing" textLength="43.9997" x="2037.23" y="248.1251">&#26029;&#28857;&#32493;&#36305;</text></g><!--entity report--><g class="entity" data-qualified-name="output_layer.report" data-source-line="53" id="ent0031"><rect fill="#B2EBF2" height="55.6094" rx="7.5" ry="7.5" style="stroke:#DEE2E6;stroke-width:0.5;" width="101.0049" x="2027.93" y="114.11"/><rect fill="#B2EBF2" height="10" style="stroke:#DEE2E6;stroke-width:0.5;" width="15" x="2108.9349" y="119.11"/><rect fill="#B2EBF2" height="2" style="stroke:#DEE2E6;stroke-width:0.5;" width="4" x="2106.9349" y="121.11"/><rect fill="#B2EBF2" height="2" style="stroke:#DEE2E6;stroke-width:0.5;" width="4" x="2106.9349" y="125.11"/><text fill="#000000" font-family="sans-serif" font-size="11" lengthAdjust="spacing" textLength="43.9997" x="2042.93" y="144.3204">&#20998;&#26512;&#25253;&#21578;</text><text fill="#000000" font-family="sans-serif" font-size="11" lengthAdjust="spacing" textLength="61.0049" x="2042.93" y="157.1251">MD / DOCX</text></g><g class="entity" data-qualified-name="GMN58" data-source-line="89" id="ent0059"><path d="M232.52,6 L232.52,99.8125 A0,0 0 0 0 232.52,99.8125 L314.65,99.8125 L318.65,238.91 L322.65,99.8125 L404.7798,99.8125 A0,0 0 0 0 404.7798,99.8125 L404.7798,16 L394.7798,6 L232.52,6 A0,0 0 0 0 232.52,6" fill="#FEFFDD" style="stroke:#181818;stroke-width:0.5;"/><path d="M394.7798,6 L394.7798,16 L404.7798,16 L394.7798,6" fill="#FEFFDD" style="stroke:#181818;stroke-width:0.5;"/><text fill="#000000" font-family="sans-serif" font-size="12" font-weight="700" lengthAdjust="spacing" textLength="36.0003" x="238.52" y="22.1387">&#38477;&#32423;&#38142;</text><text fill="#000000" font-family="sans-serif" font-size="12" lengthAdjust="spacing" textLength="128.1738" x="238.52" y="36.1074">tencent_sina,akshare</text><text fill="#000000" font-family="sans-serif" font-size="12" lengthAdjust="spacing" textLength="116.344" x="238.52" y="50.0762">&#20808;&#23581;&#35797; tencent_sina</text><text fill="#000000" font-family="sans-serif" font-size="12" lengthAdjust="spacing" textLength="111.645" x="238.52" y="64.0449">&#22833;&#36133;&#21017;&#22238;&#36864; akshare</text><text fill="#000000" font-family="sans-serif" font-size="12" lengthAdjust="spacing" textLength="96.0241" x="238.52" y="78.0137">A &#32929;&#27169;&#24335;&#33258;&#21160;&#25490;&#38500;</text><text fill="#000000" font-family="sans-serif" font-size="12" lengthAdjust="spacing" textLength="151.2598" x="238.52" y="91.9824">yfinance / alpha_vantage</text></g><g class="entity" data-qualified-name="GMN61" data-source-line="98" id="ent0062"><path d="M1070.19,110 L1070.19,203.8125 A0,0 0 0 0 1070.19,203.8125 L1147.96,203.8125 L1151.96,251.39 L1155.96,203.8125 L1233.7373,203.8125 A0,0 0 0 0 1233.7373,203.8125 L1233.7373,120 L1223.7373,110 L1070.19,110 A0,0 0 0 0 1070.19,110" fill="#FEFFDD" style="stroke:#181818;stroke-width:0.5;"/><path d="M1223.7373,110 L1223.7373,120 L1233.7373,120 L1223.7373,110" fill="#FEFFDD" style="stroke:#181818;stroke-width:0.5;"/><text fill="#000000" font-family="sans-serif" font-size="12" font-weight="700" lengthAdjust="spacing" textLength="71.5901" x="1076.19" y="126.1387">&#21452; LLM &#27169;&#24335;</text><text fill="#000000" font-family="sans-serif" font-size="12" lengthAdjust="spacing" textLength="94.5996" x="1076.19" y="140.1074">deep_think_llm:</text><text fill="#000000" font-family="sans-serif" font-size="12" lengthAdjust="spacing" textLength="112.2598" x="1083.8189" y="154.0762">Research Manager</text><text fill="#000000" font-family="sans-serif" font-size="12" lengthAdjust="spacing" textLength="106.207" x="1083.8189" y="168.0449">Portfolio Manager</text><text fill="#000000" font-family="sans-serif" font-size="12" lengthAdjust="spacing" textLength="96.7031" x="1076.19" y="182.0137">quick_think_llm:</text><text fill="#000000" font-family="sans-serif" font-size="12" lengthAdjust="spacing" textLength="134.9184" x="1083.8189" y="195.9824">&#20998;&#26512;&#24072; + &#36777;&#35770; + Trader</text></g><!--link yf to router--><g class="link" data-entity-1="ent0003" data-entity-2="ent0010" data-link-type="dependency" data-source-line="56" id="lnk32"><path d="M146.68,366.66 C183.14,345.38 227.7379,319.3742 264.1679,298.1142" fill="none" id="yf-to-router" style="stroke:#181818;stroke-width:1;"/><polygon fill="#181818" points="269.35,295.09,259.5607,296.1716,265.0316,297.6102,263.593,303.081,269.35,295.09" style="stroke:#181818;stroke-width:1;"/></g><!--link av to router--><g class="link" data-entity-1="ent0004" data-entity-2="ent0010" data-link-type="dependency" data-source-line="57" id="lnk33"><path d="M156.33,457.87 C165.22,452.47 173.98,446.44 181.67,439.91 C232.61,396.62 274.2408,336.7396 297.5108,299.9796" fill="none" id="av-to-router" style="stroke:#181818;stroke-width:1;"/><polygon fill="#181818" points="300.72,294.91,292.5265,300.375,298.0457,299.1347,299.286,304.6539,300.72,294.91" style="stroke:#181818;stroke-width:1;"/></g><!--link ts to router--><g class="link" data-entity-1="ent0005" data-entity-2="ent0010" data-link-type="dependency" data-source-line="58" id="lnk34"><path d="M141.45,559.25 C155.5,552 170.37,542.53 181.67,530.91 C250.66,459.93 290.8186,352.6337 307.5086,300.5637" fill="none" id="ts-to-router" style="stroke:#181818;stroke-width:1;"/><polygon fill="#181818" points="309.34,294.85,302.7838,302.1996,307.8138,299.6114,310.402,304.6414,309.34,294.85" style="stroke:#181818;stroke-width:1;"/></g><!--link ak to router--><g class="link" data-entity-1="ent0006" data-entity-2="ent0010" data-link-type="dependency" data-source-line="59" id="lnk35"><path d="M145.23,649.36 C158.39,642.35 171.78,633.26 181.67,621.91 C268.77,521.85 301.9475,365.9907 312.6075,301.0907" fill="none" id="ak-to-router" style="stroke:#181818;stroke-width:1;"/><polygon fill="#181818" points="313.58,295.17,308.1742,303.4027,312.7696,300.1039,316.0684,304.6993,313.58,295.17" style="stroke:#181818;stroke-width:1;"/></g><!--link oc to router--><g class="link" data-entity-1="ent0007" data-entity-2="ent0010" data-link-type="dependency" data-source-line="60" id="lnk36"><path d="M153.96,736.11 C164.29,729.84 174.17,722.16 181.67,712.91 C287.33,582.6 310.6198,376.956 315.8198,301.076" fill="none" id="oc-to-router" style="stroke:#181818;stroke-width:1;"/><polygon fill="#181818" points="316.23,295.09,311.624,303.7955,315.8882,300.0783,319.6053,304.3424,316.23,295.09" style="stroke:#181818;stroke-width:1;"/></g><!--link cfg to router--><g class="link" data-entity-1="ent0009" data-entity-2="ent0010" data-link-type="dependency" data-source-line="62" id="lnk37"><path d="M149.97,266.91 C179.62,266.91 211.19,266.91 243.25,266.91" fill="none" id="cfg-to-router" style="stroke:#181818;stroke-width:1;"/><polygon fill="#181818" points="249.25,266.91,240.25,262.91,244.25,266.91,240.25,270.91,249.25,266.91" style="stroke:#181818;stroke-width:1;"/></g><!--link methods to router--><g class="link" data-entity-1="ent0011" data-entity-2="ent0010" data-link-type="dependency" data-source-line="63" id="lnk38"><path d="M166.47,204.2 C192.89,215.16 217.5275,225.382 243.9375,236.332" fill="none" id="methods-to-router" style="stroke:#181818;stroke-width:1;"/><polygon fill="#181818" points="249.48,238.63,242.6983,231.488,244.8613,236.715,239.6343,238.878,249.48,238.63" style="stroke:#181818;stroke-width:1;"/></g><!--link router to tools_core--><g class="link" data-entity-1="ent0010" data-entity-2="ent0013" data-link-type="dependency" data-source-line="65" id="lnk39"><path d="M353.42,238.63 C377.56,219.32 411.37,194.05 443.78,175.91 C459.99,166.84 472.799,160.8129 489.929,153.8729" fill="none" id="router-to-tools_core" style="stroke:#181818;stroke-width:1;"/><polygon fill="#181818" points="495.49,151.62,485.6466,151.2921,490.8559,153.4975,488.6505,158.7067,495.49,151.62" style="stroke:#181818;stroke-width:1;"/></g><!--link router to tools_fund--><g class="link" data-entity-1="ent0010" data-entity-2="ent0014" data-link-type="dependency" data-source-line="66" id="lnk40"><path d="M388.11,253.6 C412.83,248.8 435.2004,244.4556 461.4204,239.3556" fill="none" id="router-to-tools_fund" style="stroke:#181818;stroke-width:1;"/><polygon fill="#181818" points="467.31,238.21,457.7118,236.002,462.402,239.1646,459.2393,243.8548,467.31,238.21" style="stroke:#181818;stroke-width:1;"/></g><!--link router to tools_news--><g class="link" data-entity-1="ent0010" data-entity-2="ent0015" data-link-type="dependency" data-source-line="67" id="lnk41"><path d="M388.11,279.93 C420.75,286.13 453.6756,292.3891 485.8056,298.4991" fill="none" id="router-to-tools_news" style="stroke:#181818;stroke-width:1;"/><polygon fill="#181818" points="491.7,299.62,483.6057,294.0091,486.788,298.6859,482.1112,301.8682,491.7,299.62" style="stroke:#181818;stroke-width:1;"/></g><!--link router to tools_sent--><g class="link" data-entity-1="ent0010" data-entity-2="ent0016" data-link-type="dependency" data-source-line="68" id="lnk42"><path d="M353.73,295.06 C377.87,314.12 411.56,338.99 443.78,356.91 C455.22,363.27 462.222,366.8474 474.602,372.2574" fill="none" id="router-to-tools_sent" style="stroke:#181818;stroke-width:1;"/><polygon fill="#181818" points="480.1,374.66,473.4548,367.3908,475.5184,372.6578,470.2513,374.7214,480.1,374.66" style="stroke:#181818;stroke-width:1;"/></g><!--link tools_core to market--><g class="link" data-entity-1="ent0013" data-entity-2="ent0018" data-link-type="dependency" data-source-line="70" id="lnk43"><path d="M619.35,129.91 C648.24,129.91 676.65,129.91 705.5,129.91" fill="none" id="tools_core-to-market" style="stroke:#181818;stroke-width:1;"/><polygon fill="#181818" points="711.5,129.91,702.5,125.91,706.5,129.91,702.5,133.91,711.5,129.91" style="stroke:#181818;stroke-width:1;"/></g><!--link tools_sent to social--><g class="link" data-entity-1="ent0016" data-entity-2="ent0019" data-link-type="dependency" data-source-line="71" id="lnk44"><path d="M644.72,402.91 C668.14,402.91 686.92,402.91 708.35,402.91" fill="none" id="tools_sent-to-social" style="stroke:#181818;stroke-width:1;"/><polygon fill="#181818" points="714.35,402.91,705.35,398.91,709.35,402.91,705.35,406.91,714.35,402.91" style="stroke:#181818;stroke-width:1;"/></g><!--link tools_news to news_a--><g class="link" data-entity-1="ent0015" data-entity-2="ent0020" data-link-type="dependency" data-source-line="72" id="lnk45"><path d="M623.39,311.91 C652.88,311.91 681.42,311.91 709.8,311.91" fill="none" id="tools_news-to-news_a" style="stroke:#181818;stroke-width:1;"/><polygon fill="#181818" points="715.8,311.91,706.8,307.91,710.8,311.91,706.8,315.91,715.8,311.91" style="stroke:#181818;stroke-width:1;"/></g><!--link tools_fund to fund--><g class="link" data-entity-1="ent0014" data-entity-2="ent0021" data-link-type="dependency" data-source-line="73" id="lnk46"><path d="M647.19,220.91 C669.68,220.91 687.27,220.91 707.83,220.91" fill="none" id="tools_fund-to-fund" style="stroke:#181818;stroke-width:1;"/><polygon fill="#181818" points="713.83,220.91,704.83,216.91,708.83,220.91,704.83,224.91,713.83,220.91" style="stroke:#181818;stroke-width:1;"/></g><!--link market to debate--><g class="link" data-entity-1="ent0018" data-entity-2="ent0023" data-link-type="dependency" data-source-line="75" id="lnk47"><path d="M832.64,158.2 C841.64,163.57 850.57,169.52 858.48,175.91 C888.1,199.84 912.2007,228.9945 929.9207,252.8345" fill="none" id="market-to-debate" style="stroke:#181818;stroke-width:1;"/><polygon fill="#181818" points="933.5,257.65,931.3414,248.0406,930.5173,253.6371,924.9208,252.813,933.5,257.65" style="stroke:#181818;stroke-width:1;"/></g><!--link social to debate--><g class="link" data-entity-1="ent0019" data-entity-2="ent0023" data-link-type="dependency" data-source-line="76" id="lnk48"><path d="M828.37,374.84 C838.53,369.15 848.94,363.04 858.48,356.91 C878.9,343.79 895.9062,331.3537 913.4162,317.7937" fill="none" id="social-to-debate" style="stroke:#181818;stroke-width:1;"/><polygon fill="#181818" points="918.16,314.12,908.5951,316.468,914.2068,317.1814,913.4934,322.7931,918.16,314.12" style="stroke:#181818;stroke-width:1;"/></g><!--link news_a to debate--><g class="link" data-entity-1="ent0020" data-entity-2="ent0023" data-link-type="dependency" data-source-line="77" id="lnk49"><path d="M830.39,303.75 C852.35,300.57 871.4923,297.7927 893.2423,294.6327" fill="none" id="news_a-to-debate" style="stroke:#181818;stroke-width:1;"/><polygon fill="#181818" points="899.18,293.77,889.6984,291.1056,894.232,294.4889,890.8486,299.0224,899.18,293.77" style="stroke:#181818;stroke-width:1;"/></g><!--link fund to debate--><g class="link" data-entity-1="ent0021" data-entity-2="ent0023" data-link-type="dependency" data-source-line="78" id="lnk50"><path d="M832.36,242.01 C853.82,249.8 872.3796,256.5341 893.4696,264.1841" fill="none" id="fund-to-debate" style="stroke:#181818;stroke-width:1;"/><polygon fill="#181818" points="899.11,266.23,892.0134,259.4008,894.4097,264.525,889.2854,266.9213,899.11,266.23" style="stroke:#181818;stroke-width:1;"/></g><!--link debate to rm--><g class="link" data-entity-1="ent0023" data-entity-2="ent0024" data-link-type="dependency" data-source-line="79" id="lnk51"><path d="M1009.57,285.91 C1031.39,285.91 1050.85,285.91 1074.11,285.91" fill="none" id="debate-to-rm" style="stroke:#181818;stroke-width:1;"/><polygon fill="#181818" points="1080.11,285.91,1071.11,281.91,1075.11,285.91,1071.11,289.91,1080.11,285.91" style="stroke:#181818;stroke-width:1;"/></g><!--link rm to trader--><g class="link" data-entity-1="ent0024" data-entity-2="ent0025" data-link-type="dependency" data-source-line="80" id="lnk52"><path d="M1223.68,285.91 C1246.92,285.91 1266.41,285.91 1288.4,285.91" fill="none" id="rm-to-trader" style="stroke:#181818;stroke-width:1;"/><polygon fill="#181818" points="1294.4,285.91,1285.4,281.91,1289.4,285.91,1285.4,289.91,1294.4,285.91" style="stroke:#181818;stroke-width:1;"/></g><!--link trader to risk--><g class="link" data-entity-1="ent0025" data-entity-2="ent0026" data-link-type="dependency" data-source-line="81" id="lnk53"><path d="M1408.3,285.91 C1426.74,285.91 1441.93,285.91 1462.96,285.91" fill="none" id="trader-to-risk" style="stroke:#181818;stroke-width:1;"/><polygon fill="#181818" points="1468.96,285.91,1459.96,281.91,1463.96,285.91,1459.96,289.91,1468.96,285.91" style="stroke:#181818;stroke-width:1;"/></g><!--link risk to pm--><g class="link" data-entity-1="ent0026" data-entity-2="ent0027" data-link-type="dependency" data-source-line="82" id="lnk54"><path d="M1690.17,285.91 C1710.8,285.91 1725.81,285.91 1744.7,285.91" fill="none" id="risk-to-pm" style="stroke:#181818;stroke-width:1;"/><polygon fill="#181818" points="1750.7,285.91,1741.7,281.91,1745.7,285.91,1741.7,289.91,1750.7,285.91" style="stroke:#181818;stroke-width:1;"/></g><!--link pm to memlog--><g class="link" data-entity-1="ent0027" data-entity-2="ent0029" data-link-type="dependency" data-source-line="83" id="lnk55"><path d="M1888.45,295.84 C1914.1,299.61 1943.56,303.94 1970.32,307.91 C1980.55,309.43 1985.3953,310.1471 1996.0153,311.7271" fill="none" id="pm-to-memlog" style="stroke:#181818;stroke-width:1;"/><polygon fill="#181818" points="2001.95,312.61,1993.6366,307.3291,1997.0044,311.8742,1992.4594,315.242,2001.95,312.61" style="stroke:#181818;stroke-width:1;"/></g><!--link memlog to pm--><g class="link" data-entity-1="ent0029" data-entity-2="ent0027" data-link-type="dependency" data-source-line="86" id="lnk57"><path d="M2002.09,333.43 C1975.97,334.86 1946.64,334.35 1920.32,328.91 C1909.8,326.74 1904.6433,325.4925 1894.2433,321.6225" fill="none" id="memlog-to-pm" style="stroke:#181818;stroke-width:1;stroke-dasharray:7,7;"/><polygon fill="#181818" points="1888.62,319.53,1895.6599,326.4176,1893.3061,321.2738,1898.4499,318.9199,1888.62,319.53" style="stroke:#181818;stroke-width:1;"/><text fill="#000000" font-family="sans-serif" font-size="12" lengthAdjust="spacing" textLength="48.0004" x="1921.32" y="326.0487">&#21382;&#21490;&#21453;&#24605;</text></g><!--link pm to report--><g class="link" data-entity-1="ent0027" data-entity-2="ent0031" data-link-type="dependency" data-source-line="84" id="lnk56"><path d="M1872.61,251.39 C1902.91,231.83 1942.16,207.44 1978.32,187.91 C1994.01,179.43 2006.0872,173.4835 2021.9872,166.1835" fill="none" id="pm-to-report" style="stroke:#181818;stroke-width:1;"/><polygon fill="#181818" points="2027.44,163.68,2017.5919,163.8,2022.896,165.7662,2020.9298,171.0704,2027.44,163.68" style="stroke:#181818;stroke-width:1;"/></g><?plantuml-src VLPRJnj757xVNp4ABmbjC92IG1ug-RAhL8NGnb5KgOwiONTihxoUSNV7f6vLYP90K4eWQG8fpQsve0RK1DAq1Kn5_moxjlz5p-oixGd6mHBsEJFdctFzPXoIuuWpvDhv0aUMxHAJsungcbUqQHcxk8Ici5dCkwn2hIHpc8lw35ryb1rU0LlicatpA8STZoWh5idXYiCDHddQ_ewWeM5biGp0E4_IlEeG90x6DE-erYOhbHabbAFlDGH_YIvFHeqn8oxNc6iHDzAdT7rOFnlgBydjBYKk6Xe9LHrlXhGVD2ro0vq8LhQ3ss-2sXt_xUm9X3takMRMmLMmxDFF6CD6AlAZuzVNrPnDCJL9XjOFbXgppsB-tAlwdUiIwge0gUPGNoAHqet4KTkuKovWT0LJ3iTdgF_oLtztrdzKKupnT2_Znjn1uyrMB5ZT3lxUpD0uWiCRpnQ3wtEX8VTwdlfvke1T4fduJsl1ep-QZv_Buugzh2RBX2R7FylGeI5qkBifNVHtrlsvdT2IcMrBDQM71m_zsdr_PRwnirM__xQLMAWX9wtK6ePnHX_iJgt9QCxE3vIh6UeHdfNYoLFXSMOkBmprmSJmKJERSkBci4b2ItaIPzbfGYtcHkQXDZmwcHmTF8fmHR-OchoKdT0lNvXCfI7aGHIixWNlLj2tw1FK3Yb4AX5UO9RNTgQxdsIIMf5pnfnsJuqQ8_fOT-1vYDRZp2ncBSnnXWhPffPjOivSxseBneEKk0Jr9KVriycnuq1oqFgu129CPOPEOKTqQip4NY7di6incy9-ek29_H_2e-IQ9zt9EmpWGeLYByGFsNlmonR-j6BoR9ZPB7SnzN38EogQsDr6K_FgBym7J-xukml-m-VDNvvcwCblAZPaYnTiMimwJkbKc6fCiLFrUBlDpkWZnaXtjkNCjJ4pT0AxHS9HN9hBAajLdpwKqFLpHn5Wvkhxcmf2cfasTjv3yAIg5yBgTlF1le9mKMHIjHUfpU9UzkqfLY0CfVWXXAnk1A3ci_xR_Vh6F_xyk_hhrLQVMiIqFIX8PqXriElENltHJy1RCVYgRzGQ1nkDDxKCJLGS1qrxA46mUrMYJM5EmdbBfReczXBnOADPG1DGiZnnWKltxmLFRlYBgus3U_vDGBG8ANVgAsUu1C4OO_6n-56yoows14gYKerTO8uLInF70HBXRiNa5PTOiid2NRryQhvOQgvjj0AAv_CkyJnxciIIqAJ4dSPS21T91M0SwO_j5NkXVS5SdcEEpJeXZg1wxVV6rWtuVsnuvKvuQgraGWvtbuB57m_tvY15ORc0pygLTglhWyOv8tvCguSb3Xwi-_yzo52H0BYpioLIOcvre6H5X5Po691hObXF65s1fBySjw6GmOkPuEbwVNOlGuFLr_1Ttt_TsBahgRb0p6APsM9uZmUHJHhSMlVlte9nIw4OIaqclv9P96N8LTiIGeVxy_JfJoFArk12L2IuvTIreYh1ZQH8chWn5Bd5s-gMw5OGgWw_Tcl577LhnO1sQmM7QPh2rc99iecci9pGIeRG52OLMZdtciBFGXkwe4Mi91HomBI8PHHDn1kAfWqIoT5iXeaeQJ1LeVVXS6ZHZ8HhqDvQsED2AfUqijmf-wKboVA1QxAB1WR4LdGUE7jftb_-qr--7SmyFg5fbC6HKunpLa8irwe0GltzpRNRC1BDUmVz_I1p0ZSMXPi3NbaVuw8dNYwWzkSM_Et7ZQsLzpQ8XPTl6t-j-mjh_iCdpPaPr349Npl1gsV-lykDcvl-hLV1qi_DjPUmqdh2GHjYyIBBJiiNcGOl1YGSZTpbh1pwMWhzz9SNqVZu19AGeRFlJ_5v-VmymcsXieiEG7la2fFMRJf77o79HV13qblRk_y1?></g></svg>